<?xml version="1.0" standalone="no"?>
<!DOCTYPE svg PUBLIC "-//W3C//DTD SVG 20010904//EN"
 "http://www.w3.org/TR/2001/REC-SVG-20010904/DTD/svg10.dtd">
<svg version="1.0" xmlns="http://www.w3.org/2000/svg"
 width="120.000000pt" height="120.000000pt" viewBox="0 0 120.000000 120.000000"
 preserveAspectRatio="xMidYMid meet">
<metadata>
Created by potrace 1.15, written by Peter Selinger 2001-2017
</metadata>
<g transform="translate(0.000000,120.000000) scale(0.100000,-0.100000)"
fill="#ff6600" stroke="none">
<path d="M441 1184 c-104 -28 -181 -74 -266 -159 -125 -125 -175 -246 -175
-425 0 -179 50 -300 175 -425 125 -125 246 -175 425 -175 179 0 300 50 425
175 125 125 175 246 175 425 0 179 -50 300 -175 425 -86 87 -162 132 -270 160
-75 19 -241 19 -314 -1z m301 -30 c195 -47 360 -212 414 -411 19 -75 19 -212
-1 -287 -52 -195 -216 -359 -411 -411 -75 -20 -212 -20 -287 -1 -199 53 -360
214 -413 413 -19 74 -19 212 0 286 32 116 107 231 201 305 145 114 315 151
497 106z"/>
<path d="M282 808 c-8 -8 -12 -66 -12 -195 0 -170 1 -183 19 -193 26 -13 386
-13 412 0 15 9 19 22 19 65 0 30 3 55 6 55 3 0 36 -18 74 -40 40 -23 81 -40
99 -40 l31 0 0 155 0 155 -37 0 c-26 -1 -59 -13 -103 -40 l-65 -40 -3 52 c-2
29 -8 58 -14 65 -15 18 -408 19 -426 1z m403 -193 l0 -170 -190 0 -190 0 -3
173 -2 172 192 -2 193 -3 0 -170z m215 -1 c0 -97 -3 -125 -13 -122 -7 2 -47
23 -90 48 -70 41 -77 48 -77 76 0 29 7 36 78 78 42 25 83 46 90 46 9 0 12 -32
12 -126z"/>
</g>
</svg>
