<?xml version="1.0" standalone="no"?>
<!DOCTYPE svg PUBLIC "-//W3C//DTD SVG 20010904//EN"
 "http://www.w3.org/TR/2001/REC-SVG-20010904/DTD/svg10.dtd">
<svg version="1.0" xmlns="http://www.w3.org/2000/svg"
 width="120.000000pt" height="120.000000pt" viewBox="0 0 120.000000 120.000000"
 preserveAspectRatio="xMidYMid meet">
<metadata>
Created by potrace 1.15, written by Peter Selinger 2001-2017
</metadata>
<g transform="translate(0.000000,120.000000) scale(0.100000,-0.100000)"
fill="#ff6600" stroke="none">
<path d="M441 1184 c-104 -28 -181 -74 -266 -159 -125 -125 -175 -246 -175
-425 0 -179 50 -300 175 -425 125 -125 246 -175 425 -175 179 0 300 50 425
175 125 125 175 246 175 425 0 179 -50 300 -175 425 -86 87 -162 132 -270 160
-75 19 -241 19 -314 -1z m301 -30 c195 -47 360 -212 414 -411 19 -75 19 -212
-1 -287 -52 -195 -216 -359 -411 -411 -75 -20 -212 -20 -287 -1 -199 53 -360
214 -413 413 -19 74 -19 212 0 286 32 116 107 231 201 305 145 114 315 151
497 106z"/>
<path d="M543 955 c-63 -27 -73 -60 -73 -235 0 -176 9 -203 73 -233 43 -21 67
-21 112 -3 65 27 75 60 75 236 0 136 -2 159 -20 187 -35 58 -101 77 -167 48z
m130 -55 c27 -30 27 -31 27 -178 0 -165 -6 -183 -66 -208 -29 -12 -39 -12 -68
0 -60 25 -66 43 -66 207 0 134 2 149 21 173 43 54 105 57 152 6z"/>
<path d="M400 642 c0 -74 4 -96 23 -133 26 -49 71 -84 129 -99 l38 -11 0 -54
0 -55 -55 0 c-42 0 -55 -3 -55 -15 0 -12 20 -15 120 -15 100 0 120 3 120 15 0
11 -12 15 -50 15 l-51 0 3 56 c3 55 3 56 42 69 99 34 136 96 136 227 0 72 -3
88 -15 88 -12 0 -15 -16 -15 -82 0 -91 -21 -143 -71 -180 -55 -41 -143 -41
-198 0 -50 37 -71 89 -71 180 0 66 -3 82 -15 82 -12 0 -15 -16 -15 -88z"/>
</g>
</svg>
