<?xml version="1.0" standalone="no"?>
<!DOCTYPE svg PUBLIC "-//W3C//DTD SVG 20010904//EN"
 "http://www.w3.org/TR/2001/REC-SVG-20010904/DTD/svg10.dtd">
<svg version="1.0" xmlns="http://www.w3.org/2000/svg"
 width="120.000000pt" height="120.000000pt" viewBox="0 0 120.000000 120.000000"
 preserveAspectRatio="xMidYMid meet">
<metadata>
Created by potrace 1.15, written by Peter Selinger 2001-2017
</metadata>
<g transform="translate(0.000000,120.000000) scale(0.100000,-0.100000)"
fill="#ff6600" stroke="none">
<path d="M441 1184 c-104 -28 -181 -74 -266 -159 -125 -125 -175 -246 -175
-425 0 -179 50 -300 175 -425 125 -125 246 -175 425 -175 179 0 300 50 425
175 125 125 175 246 175 425 0 179 -50 300 -175 425 -86 87 -162 132 -270 160
-75 19 -241 19 -314 -1z m301 -30 c195 -47 360 -212 414 -411 19 -75 19 -212
-1 -287 -52 -195 -216 -359 -411 -411 -75 -20 -212 -20 -287 -1 -199 53 -360
214 -413 413 -19 74 -19 212 0 286 32 116 107 231 201 305 145 114 315 151
497 106z"/>
<path d="M442 878 c3 -35 17 -91 31 -125 l25 -62 -34 -26 c-54 -42 -77 -96
-72 -175 5 -88 36 -137 109 -174 57 -28 106 -33 160 -15 152 51 196 248 78
354 l-41 37 26 71 c16 44 26 93 26 125 l0 52 -156 0 -157 0 5 -62z m138 -48
c0 -64 3 -80 15 -80 12 0 15 16 15 80 l0 80 56 0 57 0 -5 -42 c-3 -24 -16 -69
-29 -102 l-24 -59 -70 1 -70 0 -23 58 c-12 33 -25 78 -29 102 l-6 42 57 0 56
0 0 -80z m114 -181 c94 -64 106 -200 24 -276 -86 -80 -217 -60 -275 42 -69
122 24 271 164 262 34 -2 64 -12 87 -28z"/>
<path d="M523 620 c-44 -27 -66 -64 -66 -113 0 -183 256 -200 280 -19 6 46
-13 88 -57 126 -40 33 -109 36 -157 6z m128 -26 c37 -19 63 -74 54 -115 -4
-15 -23 -42 -42 -60 -32 -27 -41 -31 -77 -26 -57 8 -96 52 -96 108 0 33 6 47
34 75 39 39 77 44 127 18z"/>
</g>
</svg>
