<?xml version="1.0" standalone="no"?>
<!DOCTYPE svg PUBLIC "-//W3C//DTD SVG 20010904//EN"
 "http://www.w3.org/TR/2001/REC-SVG-20010904/DTD/svg10.dtd">
<svg version="1.0" xmlns="http://www.w3.org/2000/svg"
 width="120.000000pt" height="120.000000pt" viewBox="0 0 120.000000 120.000000"
 preserveAspectRatio="xMidYMid meet">
<metadata>
Created by potrace 1.15, written by Peter Selinger 2001-2017
</metadata>
<g transform="translate(0.000000,120.000000) scale(0.100000,-0.100000)"
fill="#ff6600" stroke="none">
<path d="M441 1184 c-104 -28 -181 -74 -266 -159 -125 -125 -175 -246 -175
-425 0 -179 50 -300 175 -425 125 -125 246 -175 425 -175 179 0 300 50 425
175 125 125 175 246 175 425 0 179 -50 300 -175 425 -86 87 -162 132 -270 160
-75 19 -241 19 -314 -1z m301 -30 c195 -47 360 -212 414 -411 19 -75 19 -212
-1 -287 -52 -195 -216 -359 -411 -411 -75 -20 -212 -20 -287 -1 -199 53 -360
214 -413 413 -19 74 -19 212 0 286 32 116 107 231 201 305 145 114 315 151
497 106z"/>
<path d="M550 875 l0 -35 -125 0 -125 0 0 -255 0 -255 300 0 300 0 0 255 0
255 -125 0 -125 0 0 35 0 35 -50 0 -50 0 0 -35z m320 -325 l0 -190 -270 0
-270 0 0 190 0 190 270 0 270 0 0 -190z"/>
<path d="M456 681 c-14 -16 -17 -32 -13 -83 3 -35 8 -75 12 -89 6 -23 3 -27
-22 -33 -34 -9 -73 -33 -73 -46 0 -12 33 -13 46 -1 5 5 26 14 47 21 38 12 39
13 33 54 -18 125 -19 148 -5 157 23 14 58 10 67 -8 11 -22 7 -79 -7 -116 -23
-59 -16 -72 50 -96 33 -13 63 -20 66 -17 13 13 -8 33 -46 44 -51 16 -55 23
-38 65 23 54 20 123 -5 147 -29 26 -89 27 -112 1z"/>
</g>
</svg>
